<?xml version="1.0" standalone="no"?>
<!DOCTYPE svg PUBLIC "-//W3C//DTD SVG 20010904//EN"
 "http://www.w3.org/TR/2001/REC-SVG-20010904/DTD/svg10.dtd">
<svg version="1.0" xmlns="http://www.w3.org/2000/svg"
 width="512.000000pt" height="512.000000pt" viewBox="0 0 512.000000 512.000000"
 preserveAspectRatio="xMidYMid meet">
<metadata>
Created by potrace 1.11, written by Peter Selinger 2001-2013
</metadata>
<g transform="translate(0.000000,512.000000) scale(0.100000,-0.100000)"
fill="#000000" stroke="none">
<path d="M2945 5104 c-41 -21 -65 -49 -76 -87 -5 -17 -9 -111 -9 -207 0 -205
7 -230 81 -268 78 -41 163 -16 201 59 15 29 18 63 18 219 0 203 -7 233 -62
273 -35 26 -114 31 -153 11z"/>
<path d="M1990 4708 c-51 -25 -80 -73 -82 -132 -1 -60 11 -77 157 -223 97 -97
129 -123 163 -132 131 -36 237 106 165 219 -29 45 -237 250 -270 265 -49 23
-89 24 -133 3z"/>
<path d="M3920 4718 c-47 -13 -304 -271 -313 -313 -15 -82 28 -160 102 -184
76 -24 107 -7 250 138 69 70 132 135 139 145 21 27 17 110 -7 150 -34 54 -106
81 -171 64z"/>
<path d="M2865 4206 c-52 -23 -88 -75 -101 -144 -13 -67 -80 -312 -114 -413
-140 -424 -455 -799 -760 -906 -105 -36 -105 -36 -136 21 -60 110 -185 201
-309 225 -28 6 -267 10 -533 10 -464 1 -485 0 -523 -19 -25 -13 -46 -34 -59
-60 -20 -39 -20 -56 -20 -1419 0 -1072 3 -1386 12 -1408 17 -38 66 -80 102
-87 17 -4 246 -6 511 -5 510 1 535 3 632 51 23 12 67 44 97 72 97 92 134 176
143 326 3 52 6 96 7 97 1 2 81 -24 177 -56 376 -126 447 -147 605 -178 16 -3
396 -8 845 -10 l815 -4 59 22 c199 74 257 321 113 484 -31 36 -111 83 -145 87
-10 1 56 4 147 7 159 6 167 7 218 35 171 95 213 311 91 459 -33 40 -122 97
-151 97 -33 0 -19 15 30 32 188 67 251 313 121 471 -33 40 -122 97 -151 97
-10 0 -18 5 -18 10 0 6 8 10 18 10 27 0 117 56 147 92 126 149 85 368 -86 463
l-54 30 -656 3 -656 3 39 127 c101 328 128 479 135 769 4 156 2 236 -6 269
-40 159 -149 278 -300 329 -79 27 -238 33 -286 11z"/>
</g>
</svg>
